<?xml version="1.0" encoding="UTF-8" standalone="no"?>
<!-- Created with Inkscape (http://www.inkscape.org/) -->

<svg
   xmlns:dc="http://purl.org/dc/elements/1.1/"
   xmlns:cc="http://creativecommons.org/ns#"
   xmlns:rdf="http://www.w3.org/1999/02/22-rdf-syntax-ns#"
   xmlns:svg="http://www.w3.org/2000/svg"
   xmlns="http://www.w3.org/2000/svg"
   xmlns:sodipodi="http://sodipodi.sourceforge.net/DTD/sodipodi-0.dtd"
   xmlns:inkscape="http://www.inkscape.org/namespaces/inkscape"
   width="24.370316mm"
   height="27.333839mm"
   viewBox="0 0 94.370316 97.333839"
   version="1.1"
   id="svg8"
   sodipodi:docname="mute.svg"
   inkscape:version="0.92.5 (2060ec1f9f, 2020-04-08)"
   inkscape:export-filename="/home/muema/Documents/projects/mat_css/mute.png"
   inkscape:export-xdpi="24.800003"
   inkscape:export-ydpi="24.800003">
  <defs
     id="defs2">
    <inkscape:perspective
       sodipodi:type="inkscape:persp3d"
       inkscape:vp_x="0 : 148.5 : 1"
       inkscape:vp_y="0 : 1000 : 0"
       inkscape:vp_z="210.00001 : 148.5 : 1"
       inkscape:persp3d-origin="105 : 99 : 1"
       id="perspective835" />
  </defs>
  <sodipodi:namedview
     id="base"
     pagecolor="#ffffff"
     bordercolor="#666666"
     borderopacity="1.0"
     inkscape:pageopacity="0.0"
     inkscape:pageshadow="2"
     inkscape:zoom="1.7692689"
     inkscape:cx="155.16991"
     inkscape:cy="242.90503"
     inkscape:document-units="mm"
     inkscape:current-layer="layer1"
     showgrid="false"
     inkscape:window-width="1366"
     inkscape:window-height="661"
     inkscape:window-x="0"
     inkscape:window-y="27"
     inkscape:window-maximized="1" />
  <metadata
     id="metadata5">
    <rdf:RDF>
      <cc:Work
         rdf:about="">
        <dc:format>image/svg+xml</dc:format>
        <dc:type
           rdf:resource="http://purl.org/dc/dcmitype/StillImage" />
        <dc:title />
      </cc:Work>
    </rdf:RDF>
  </metadata>
  <g
     inkscape:label="Layer 1"
     inkscape:groupmode="layer"
     id="layer1"
     transform="translate(-44.906868,-67.857568)">
    <path
       id="path10"
       transform="scale(0.26458333)"
       style="opacity:1;fill:#ffffff;fill-opacity:1;stroke:#ffffff;stroke-width:14.0711813;stroke-linecap:round;stroke-linejoin:miter;stroke-miterlimit:4;stroke-dasharray:none;stroke-opacity:1;paint-order:stroke fill markers"
       d="m 376.95117,325.23242 c -11.14265,0.7794 -101.58502,98.42313 -107.90625,104.68555 -2.70471,2.67955 -22.2964,20.6245 -43.88281,41.13086 0.23266,0.77276 0.46352,1.54739 0.73242,2.31836 0.31998,1.643 1.35679,2.98823 2.13281,4.45117 1.10123,2.07606 1.86966,3.78171 2.88672,6.01367 1.1655,2.55772 2.31105,5.1254 3.4668,7.6875 1.52803,4.41876 3.33262,8.75093 4.58398,13.25586 1.39907,5.03666 2.41888,10.17047 3.46875,15.29297 0.22416,0.44048 0.43547,0.88659 0.67383,1.32031 2.07105,3.76853 2.22884,2.20439 4.13672,6.69727 0.68996,1.62478 1.04409,3.37243 1.56641,5.05859 0.0567,0.2211 0.1,0.46099 0.14648,0.69531 0.15865,0.20115 0.3133,0.40771 0.48828,0.58594 1.78053,2.78129 0.81871,1.0471 1.20508,3.19141 0.31115,-0.0466 0.63252,-0.0751 0.97461,-0.0645 0.89422,0.0278 1.7126,0.27766 2.48242,0.66602 3.43217,0.0638 6.5452,2.96543 7.6543,5.82813 0.6036,1.55793 0.63975,3.2799 0.95898,4.91992 -0.06,0.40029 -0.003,1.4058 -0.33203,1.16992 -0.2872,-0.20599 -0.82706,-1.13568 -0.67969,-0.81445 1.38315,3.01466 3.20797,5.02784 2.74805,8.91992 -0.002,2.51561 0.0555,5.03148 0.008,7.54687 -0.0165,0.43158 -0.0311,0.8634 -0.0488,1.29492 0.0516,0.26283 0.14073,0.79381 0.21289,1.20508 22.30741,5.46951 40.56288,9.73217 43.57617,10.55469 8.72028,2.38033 139.41242,44.16846 145.83398,37.80664 6.42157,-6.36182 -34.14269,-137.43949 -36.4414,-146.18164 -2.29872,-8.74215 -31.45552,-142.81889 -40.17578,-145.19922 -0.13626,-0.0372 -0.29384,-0.0495 -0.47071,-0.0371 z M 261.16992,547.34766 c -0.33107,1.13155 -0.67089,2.28104 -1.14062,3.24414 1.16368,-1.06535 1.81209,-2.24837 1.14062,-3.24414 z"
       inkscape:connector-curvature="0" />
    <path
       style="opacity:1;fill:none;stroke:#ffffff;stroke-width:2.86500001;stroke-linecap:butt;stroke-linejoin:miter;stroke-miterlimit:4;stroke-dasharray:none;stroke-opacity:1"
       d="m 59.044974,123.57333 c 10.442313,25.72813 10.442313,25.72813 10.442313,25.72813"
       id="path28"
       inkscape:connector-curvature="0" />
    <rect
       style="opacity:1;fill:#ffffff;fill-opacity:1;stroke:#ffffff;stroke-width:4.05313349;stroke-linecap:round;stroke-linejoin:miter;stroke-miterlimit:4;stroke-dasharray:none;stroke-opacity:1;paint-order:stroke fill markers"
       id="rect851"
       width="10.781452"
       height="25.624426"
       x="3.8786204"
       y="140.23195"
       transform="matrix(0.8873121,-0.46116942,0.30417634,0.95261574,0,0)"
       ry="2.7878971" />
    <path
       id="path853"
       transform="scale(0.26458333)"
       style="fill:#ffffff;fill-opacity:1;stroke:#ffffff;stroke-width:6.02078772;stroke-linecap:butt;stroke-linejoin:miter;stroke-miterlimit:4;stroke-dasharray:none;stroke-opacity:1"
       d="m 419.375,346.40039 -13.61133,3.47656 -0.58594,0.26367 c 0.0378,0.13191 0.0641,0.25645 0.0664,0.37891 0.0748,-0.0578 0.12885,-0.0805 0.16211,-0.0703 0.003,-0.002 0.004,-0.004 0.008,-0.008 3.8e-4,-3.4e-4 0.008,0.002 0.0117,0.002 0.002,7.9e-4 0.004,4.8e-4 0.008,0.002 0.0302,0.002 0.14681,0.0373 0.16797,0.043 -0.034,0.16857 -0.0692,0.28612 -0.10547,0.42774 0.003,0.008 0.004,0.0178 0.008,0.0254 0.008,0.0113 0.014,0.027 0.0254,0.041 -0.0151,-0.0537 -0.0212,-0.0906 -0.0137,-0.0781 0.0302,0.0442 0.0296,0.0538 0.0508,0.0859 0.0151,-0.0378 0.0253,-0.0697 0.0449,-0.10937 0.0189,-0.034 0.0576,-0.018 0.0996,0.004 0.0544,7.5e-4 0.13779,0.001 0.1582,0.006 0.0567,0.0113 0.17175,-0.0174 0.16797,0.0449 -0.008,0.0971 -0.002,0.14032 -0.004,0.22461 0.034,0.0457 0.11221,0.0928 0.0801,0.13476 -0.004,0.008 -0.008,0.012 -0.0156,0.0195 l 0.59375,-0.23242 c 0,0 25.14393,34.36487 35.85156,52.97266 9.7717,16.98126 20.27157,34.05437 25.74414,53.25195 5.52299,19.37431 6.77388,40.19421 6.58789,60.50781 -0.11187,12.20024 -2.7099,24.22782 -4.62109,36.24414 -1.34174,8.43598 -4.80079,25.14063 -4.80079,25.14063 l 13.61133,1.1582 c 0,0 2.05549,-15.30272 3.01367,-22.96484 1.68242,-13.45353 4.50205,-26.81884 4.80079,-40.39649 0.46261,-21.02532 0.52419,-42.65243 -4.67383,-62.88281 -5.24878,-20.42789 -15.78698,-38.89399 -26.17774,-56.75195 -10.62028,-18.25244 -36.64648,-50.96094 -36.64648,-50.96094 z m -13.59961,4.49219 c -4.9e-4,0.004 -0.001,0.006 -0.002,0.01 l 0.0117,-0.01 c -0.003,4e-5 -0.004,-8e-5 -0.008,0 z m -0.15625,0.002 c -0.0113,0.0488 -0.0178,0.0989 -0.0254,0.14844 0.004,0.008 0.01,0.0237 0.0176,0.0312 0.0103,-0.0522 0.0187,-0.10625 0.0312,-0.1582 z m 0.0234,0.0215 0.44922,0.39843 c 0,0 -0.46043,-0.41444 -0.44532,-0.41406 -10e-4,0.005 -0.003,0.0104 -0.004,0.0156 z m -21.48828,8.70117 -5.16016,2.32617 5.32227,-2.08594 c -0.0151,-0.0151 -0.0303,-0.0106 -0.0488,-0.0371 -0.0563,-0.0556 -0.0955,-0.11997 -0.11328,-0.20312 z"
       inkscape:connector-curvature="0" />
    <path
       id="path853-3"
       transform="scale(0.26458333)"
       style="fill:#ffffff;fill-opacity:1;stroke:#ffffff;stroke-width:5.37448835;stroke-linecap:butt;stroke-linejoin:miter;stroke-miterlimit:4;stroke-dasharray:none;stroke-opacity:1"
       d="m 448.02344,317.05078 -15.22071,4.10742 -0.65429,0.3125 c 0.0419,0.15602 0.0735,0.30257 0.0762,0.44727 0.0839,-0.0683 0.14498,-0.096 0.18164,-0.084 0.003,-0.003 0.006,-0.003 0.006,-0.006 4.9e-4,-4e-4 0.008,0.004 0.0117,0.004 0.002,9e-4 0.008,2.4e-4 0.008,0.002 0.0302,0.003 0.16369,0.0432 0.1875,0.0508 -0.0389,0.19914 -0.0768,0.33656 -0.11719,0.5039 0.003,0.01 0.008,0.0211 0.008,0.0312 0.0113,0.0151 0.0179,0.0313 0.0293,0.0469 -0.0189,-0.0633 -0.0251,-0.1065 -0.0176,-0.0918 0.034,0.0523 0.0332,0.0638 0.0566,0.10156 0.0189,-0.0441 0.0296,-0.0839 0.0508,-0.13086 0.0189,-0.0421 0.0645,-0.0225 0.11132,0.004 0.0609,9e-4 0.15468,0.005 0.17774,0.01 0.0631,0.014 0.19166,-0.0243 0.1875,0.0508 -0.008,0.11486 -0.003,0.16603 -0.008,0.26562 0.0378,0.0542 0.12537,0.11042 0.0898,0.16016 -0.008,0.009 -0.008,0.0155 -0.0156,0.0234 l 0.6621,-0.27344 c 0,0 28.11387,40.62383 40.08594,62.62109 10.92563,20.07451 22.66434,40.25846 28.7832,62.95313 6.17515,22.90356 7.57514,47.51542 7.36719,71.52929 -0.1251,14.42257 -3.0311,28.64047 -5.16797,42.84571 -1.50017,9.97262 -5.36718,29.7207 -5.36718,29.7207 l 15.21875,1.36914 c 0,0 2.29975,-18.09065 3.37109,-27.14844 1.88111,-15.90417 5.03319,-31.705 5.36719,-47.75586 0.51723,-24.85515 0.58529,-50.42228 -5.22657,-74.33789 -5.86809,-24.14906 -17.64976,-45.97696 -29.26757,-67.08789 -11.87441,-21.57718 -40.97461,-60.24414 -40.97461,-60.24414 z m -15.20703,5.3086 c -5.7e-4,0.005 -0.001,0.008 -0.002,0.0117 l 0.0117,-0.0117 c -0.003,7e-5 -0.008,-9e-5 -0.008,0 z m -0.17383,0.006 c -0.0113,0.0576 -0.018,0.11514 -0.0293,0.17383 0.008,0.011 0.0138,0.0253 0.0176,0.0352 0.0137,-0.0617 0.0235,-0.12426 0.0371,-0.18555 z m 0.0254,0.0234 0.50195,0.47071 c 0,-10e-6 -0.51316,-0.49068 -0.49804,-0.49024 -0.002,0.006 -0.002,0.0131 -0.004,0.0195 z"
       inkscape:connector-curvature="0" />
    <rect
       style="opacity:1;fill:#ffffff;fill-opacity:1;stroke:#ffffff;stroke-width:0.97483307;stroke-linecap:round;stroke-linejoin:miter;stroke-miterlimit:4;stroke-dasharray:none;stroke-opacity:1;paint-order:stroke fill markers"
       id="rect957"
       width="10.908228"
       height="101.665"
       x="32.556557"
       y="98.801483"
       transform="rotate(-26.854227)" />
  </g>
</svg>
